<?xml version="1.0" standalone="no"?>
<!DOCTYPE svg PUBLIC "-//W3C//DTD SVG 20010904//EN"
 "http://www.w3.org/TR/2001/REC-SVG-20010904/DTD/svg10.dtd">
<svg version="1.0" xmlns="http://www.w3.org/2000/svg"
 width="500.000000pt" height="500.000000pt" viewBox="0 0 500.000000 500.000000"
 preserveAspectRatio="xMidYMid meet">

<g transform="translate(0.000000,500.000000) scale(0.100000,-0.100000)"
fill="#000000" stroke="none">
<path d="M1393 2271 c-87 -14 -103 -54 -103 -253 l0 -138 40 0 40 0 0 80 0 80
85 0 85 0 0 30 0 30 -85 0 -85 0 0 38 c0 64 16 76 109 80 l81 4 0 29 0 29 -62
-1 c-35 -1 -82 -5 -105 -8z"/>
<path d="M2656 2265 c-42 -22 -55 -44 -56 -95 0 -74 18 -90 142 -124 61 -17
78 -39 58 -75 -12 -23 -66 -37 -102 -26 -12 4 -35 18 -49 31 l-25 24 -23 -24
-22 -24 23 -22 c13 -12 33 -26 46 -31 35 -14 138 -11 177 5 40 17 55 42 55 94
0 58 -27 86 -102 106 -35 10 -73 24 -85 32 -27 17 -30 56 -8 74 22 19 85 14
115 -9 25 -18 26 -18 49 0 20 16 21 22 10 35 -36 44 -145 59 -203 29z"/>
<path d="M2200 2250 c-37 -37 10 -85 50 -52 19 15 21 22 12 39 -17 30 -40 35
-62 13z"/>
<path d="M3695 2254 c-19 -20 -16 -43 8 -58 37 -23 77 35 41 61 -23 17 -29 16
-49 -3z"/>
<path d="M1651 2136 c-35 -20 -50 -54 -51 -117 0 -76 15 -114 50 -129 41 -17
127 -14 156 5 l25 16 -23 19 c-16 13 -28 15 -40 9 -30 -16 -76 -11 -88 10 -5
11 -10 22 -10 24 0 3 31 7 70 9 38 2 75 9 82 16 7 7 12 31 12 54 -2 60 -46 98
-112 98 -26 -1 -58 -7 -71 -14z m96 -44 c11 -7 16 -26 14 -49 -1 -8 -17 -13
-46 -13 -38 0 -45 3 -45 19 0 38 45 63 77 43z"/>
<path d="M1885 2132 c-18 -15 -19 -20 -8 -42 8 -15 13 -63 13 -117 l0 -93 35
0 35 0 0 93 c0 78 3 97 18 110 10 10 25 17 33 17 32 0 39 -23 39 -122 l0 -98
35 0 35 0 0 110 c0 104 -1 112 -25 135 -31 32 -91 34 -122 6 -21 -20 -21 -20
-39 0 -21 23 -23 23 -49 1z"/>
<path d="M2190 2035 c0 -96 3 -116 19 -136 17 -22 21 -22 45 -10 27 15 34 35
16 46 -6 3 -10 50 -10 106 0 54 -3 99 -7 100 -5 0 -20 2 -35 4 l-28 4 0 -114z"/>
<path d="M2310 2144 c0 -4 16 -31 35 -60 19 -29 35 -58 35 -65 0 -6 -18 -40
-40 -75 l-40 -64 35 0 c30 0 38 6 60 40 14 22 27 40 29 40 2 0 15 -18 30 -40
22 -34 31 -40 62 -40 l35 0 -41 59 c-22 33 -40 65 -40 71 0 6 16 36 35 66 19
30 35 58 35 62 0 5 -14 8 -31 8 -25 0 -36 -7 -55 -38 -13 -21 -26 -38 -28 -38
-2 0 -15 17 -28 38 -19 29 -33 38 -57 40 -17 1 -31 -1 -31 -4z"/>
<path d="M2949 2121 c-27 -27 -29 -35 -29 -101 0 -66 2 -74 29 -101 26 -25 37
-29 88 -29 68 0 112 22 92 46 -8 10 -25 12 -66 7 -42 -4 -57 -3 -64 8 -20 32
-10 39 55 39 76 0 96 14 96 66 0 26 -8 44 -29 65 -26 25 -37 29 -86 29 -49 0
-60 -4 -86 -29z m129 -53 c3 -27 2 -28 -42 -28 -47 0 -54 8 -40 45 5 12 17 15
43 13 31 -3 36 -7 39 -30z"/>
<path d="M3195 2130 c-14 -16 -16 -23 -7 -32 8 -8 12 -48 12 -110 l0 -98 35 0
35 0 0 85 c0 73 3 88 21 106 16 16 29 20 50 15 24 -5 31 -2 38 16 7 18 14 2
40 -82 18 -58 40 -113 48 -122 10 -11 31 -18 54 -18 48 0 58 14 94 140 15 52
30 101 33 108 3 10 -4 13 -29 10 -34 -3 -34 -3 -63 -105 -30 -102 -40 -120
-50 -85 -2 9 -17 56 -32 105 l-26 87 -73 0 c-59 0 -75 -4 -90 -20 l-18 -20
-14 20 c-18 25 -35 25 -58 0z"/>
<path d="M3690 2037 c0 -98 3 -116 18 -130 24 -22 35 -21 55 1 13 15 14 21 4
31 -7 7 -13 47 -14 104 -2 51 -3 95 -3 100 0 4 -13 7 -30 7 l-30 0 0 -113z"/>
<path d="M3865 2138 c-37 -20 -45 -40 -45 -116 0 -85 8 -105 50 -122 21 -9 30
-19 30 -36 0 -17 6 -24 19 -24 24 0 36 -29 16 -36 -8 -4 -26 -3 -40 0 -20 5
-25 3 -25 -13 0 -15 9 -22 33 -26 77 -15 126 46 73 91 l-27 24 35 14 c44 18
50 29 26 51 -16 14 -23 15 -34 6 -8 -7 -30 -11 -48 -9 -31 3 -33 6 -41 53 -12
72 2 105 46 105 18 0 38 -5 45 -12 9 -9 16 -7 33 8 l21 19 -22 17 c-25 21
-112 24 -145 6z"/>
<path d="M4096 2127 c-45 -45 -45 -169 0 -214 19 -19 33 -23 84 -23 55 0 65 3
91 29 27 27 29 35 29 101 0 66 -2 74 -29 101 -26 26 -36 29 -91 29 -51 0 -65
-4 -84 -23z m122 -39 c16 -16 16 -120 0 -136 -19 -19 -66 -15 -78 7 -5 11 -10
38 -10 61 0 23 5 50 10 61 12 22 59 26 78 7z"/>
<path d="M4366 2129 c-55 -43 -24 -111 59 -133 38 -9 50 -17 50 -32 0 -25 -59
-32 -84 -10 -16 15 -19 14 -37 -5 -19 -21 -19 -21 5 -40 17 -14 39 -19 83 -19
50 0 63 4 85 26 20 20 24 32 19 56 -7 37 -27 54 -81 70 -51 15 -65 26 -58 44
6 17 46 18 74 3 16 -8 25 -7 41 7 20 18 20 19 -2 36 -32 26 -119 24 -154 -3z"/>
</g>
</svg>
